# xmcd
#
# Track frame offsets: 
#        150
#        14316
#        42880
#        58019
#        80219
#        94757
#        114518
#        133309
#        161025
#        169532
#        192899
#        203810
#        224087
#        242175
#
# Disc length: 3429 seconds
#
# Revision: 0
# Processed by: cddbd v1.5.2PL0 Copyright (c) Steve Scherf et al.
# Submitted via: ExactAudioCopy v0.95b4
#
DISCID=cc0d630e
DTITLE=Bobby Radcliff - Natural Ball
DYEAR=2004
DGENRE=Blues
TTITLE0=Natural Ball
TTITLE1=Hard Road To Travel
TTITLE2=Icy Blue
TTITLE3=Chicken Heads
TTITLE4=The Horse
TTITLE5=Feel So Good
TTITLE6=You Left Me With A Broken Heart
TTITLE7=A Real Mother For Ya
TTITLE8=Down Stroke: fourth invention
TTITLE9=Lover Death Zone
TTITLE10=Dog House: a tribute to Hound Dog Taylor 
TTITLE11=Carfish Blues
TTITLE12=Finally Found Myself
TTITLE13=Sourpuss
EXTD=
EXTT0=
EXTT1=
EXTT2=
EXTT3=
EXTT4=
EXTT5=
EXTT6=
EXTT7=
EXTT8=
EXTT9=
EXTT10=
EXTT11=
EXTT12=
EXTT13=
PLAYORDER=
